<?xml version="1.0" encoding="utf-8"?>
<!-- Generator: Adobe Illustrator 23.0.3, SVG Export Plug-In . SVG Version: 6.00 Build 0)  -->
<svg version="1.1" xmlns="http://www.w3.org/2000/svg" xmlns:xlink="http://www.w3.org/1999/xlink" x="0px" y="0px"
	 viewBox="0 0 500 500" style="enable-background:new 0 0 500 500;" xml:space="preserve">
<style type="text/css">
	.st0{fill:none;stroke:#000000;stroke-width:1.7827;stroke-miterlimit:10;}
	.st1{fill:none;stroke:#000000;stroke-width:8.7229;stroke-miterlimit:10;}
	.st2{fill:none;stroke:#000000;stroke-width:8.567;stroke-miterlimit:10;}
	.st3{fill:none;stroke:#000000;stroke-width:9.1232;stroke-miterlimit:10;}
	.st4{fill:none;stroke:#000000;stroke-width:8.7705;stroke-miterlimit:10;}
	.st5{opacity:0.6;fill:url(#SVGID_1_);}
	.st6{opacity:0.6;fill:url(#SVGID_2_);}
	.st7{opacity:0.6;fill:url(#SVGID_3_);}
	.st8{opacity:0.6;fill:url(#SVGID_4_);}
	.st9{fill:#ED1C24;}
	.st10{fill:#FFFFFF;}
	.st11{opacity:0.4;}
	.st12{opacity:0.6;fill:url(#SVGID_5_);}
	.st13{opacity:0.6;fill:url(#SVGID_6_);}
	.st14{opacity:0.6;fill:url(#SVGID_7_);}
	.st15{opacity:0.6;fill:url(#SVGID_8_);}
	.st16{fill:none;stroke:#000000;stroke-width:7.9363;stroke-miterlimit:10;}
	.st17{opacity:0.4;fill:#A7A9AC;}
	.st18{fill:none;stroke:#000000;stroke-width:9.0983;stroke-miterlimit:10;}
	.st19{fill:none;stroke:#000000;stroke-width:6.8218;stroke-miterlimit:10;}
	.st20{opacity:0.6;fill:url(#SVGID_9_);}
	.st21{opacity:0.6;fill:url(#SVGID_10_);}
	.st22{opacity:0.6;fill:url(#SVGID_11_);}
	.st23{opacity:0.6;fill:url(#SVGID_12_);}
	.st24{opacity:0.6;fill:url(#SVGID_13_);}
	.st25{opacity:0.6;fill:url(#SVGID_14_);}
	.st26{fill:none;stroke:#000000;stroke-width:7.4383;stroke-miterlimit:10;}
	.st27{fill:none;stroke:#000000;stroke-width:8.5273;stroke-miterlimit:10;}
	.st28{fill:none;stroke:#000000;stroke-width:6.3937;stroke-miterlimit:10;}
	.st29{opacity:0.6;fill:url(#SVGID_15_);}
	.st30{opacity:0.6;fill:url(#SVGID_16_);}
	.st31{opacity:0.6;fill:url(#SVGID_17_);}
	.st32{fill:none;stroke:#000000;stroke-width:8.1755;stroke-miterlimit:10;}
	.st33{opacity:0.6;fill:url(#SVGID_18_);}
	.st34{opacity:0.6;fill:url(#SVGID_19_);}
	.st35{opacity:0.6;fill:url(#SVGID_20_);}
</style>
<g id="Layer_1">
</g>
<g id="Layer_4">
</g>
<g id="Layer_3">
</g>
<g id="Layer_2">
	<g>
		<g>
			<g>
				<polygon class="st9" points="407.5,346.3 128.6,346.3 128.6,67.4 407.5,67.4 407.5,98.4 				"/>
				<polygon class="st32" points="407.5,346.3 128.6,346.3 128.6,67.4 407.5,67.4 407.5,98.4 				"/>
			</g>
			<line class="st26" x1="126.2" y1="103.9" x2="406.7" y2="103.9"/>
			<circle cx="147.5" cy="86.4" r="5.9"/>
		</g>
		
			<rect x="138" y="114.2" transform="matrix(1 -2.694796e-03 2.694796e-03 1 -0.6058 0.7232)" class="st10" width="260.2" height="221.9"/>
		<line class="st27" x1="238.9" y1="150.7" x2="379" y2="151.6"/>
		<line class="st27" x1="159.2" y1="199.8" x2="352.6" y2="199.8"/>
		<line class="st27" x1="159.2" y1="248" x2="362" y2="248"/>
		<line class="st27" x1="158.3" y1="294.5" x2="380.7" y2="294.5"/>
		<g>
			<polyline class="st28" points="172.8,135.5 160.7,149.3 172.3,162.6 			"/>
			<polyline class="st28" points="207.2,162.6 219.4,148.8 207.8,135.5 			"/>
			<line class="st28" x1="196.4" y1="134" x2="182.9" y2="166.5"/>
		</g>
		<g>
			
				<linearGradient id="SVGID_1_" gradientUnits="userSpaceOnUse" x1="-9003.1045" y1="1259.8159" x2="-8917.459" y2="1259.8159" gradientTransform="matrix(-0.8549 0.5188 -0.5188 -0.8549 -6646.4741 5895.5537)">
				<stop  offset="0" style="stop-color:#FFFFFF"/>
				<stop  offset="0.1316" style="stop-color:#D8D8D8"/>
				<stop  offset="0.4533" style="stop-color:#7C7C7C"/>
				<stop  offset="0.715" style="stop-color:#393939"/>
				<stop  offset="0.9034" style="stop-color:#101010"/>
				<stop  offset="1" style="stop-color:#000000"/>
			</linearGradient>
			<polygon class="st5" points="420.9,187.7 328.7,200.9 367,111 			"/>
			
				<ellipse transform="matrix(1.143896e-02 -0.9999 0.9999 1.143896e-02 274.1257 547.828)" cx="414.1" cy="135.3" rx="52.8" ry="52.8"/>
		</g>
		
			<linearGradient id="SVGID_2_" gradientUnits="userSpaceOnUse" x1="-1031.8568" y1="-1319.5048" x2="-912.748" y2="-1319.5048" gradientTransform="matrix(0.9346 0.3558 -0.3558 0.9346 611.4252 1808.1456)">
			<stop  offset="0" style="stop-color:#FFFFFF"/>
			<stop  offset="0.1316" style="stop-color:#D8D8D8"/>
			<stop  offset="0.4533" style="stop-color:#7C7C7C"/>
			<stop  offset="0.715" style="stop-color:#393939"/>
			<stop  offset="0.9034" style="stop-color:#101010"/>
			<stop  offset="1" style="stop-color:#000000"/>
		</linearGradient>
		<polygon class="st6" points="138.8,149.6 228.4,249.1 105.8,270.4 		"/>
		<ellipse transform="matrix(0.8815 -0.4722 0.4722 0.8815 -84.3777 68.9364)" cx="95.1" cy="202.6" rx="68.7" ry="68.7"/>
		
			<linearGradient id="SVGID_3_" gradientUnits="userSpaceOnUse" x1="-7476.5571" y1="5378.7744" x2="-7355.1294" y2="5378.7744" gradientTransform="matrix(-0.9262 -0.3771 0.3771 -0.9262 -8565.5596 2462.1797)">
			<stop  offset="0" style="stop-color:#FFFFFF"/>
			<stop  offset="0.1316" style="stop-color:#D8D8D8"/>
			<stop  offset="0.4533" style="stop-color:#7C7C7C"/>
			<stop  offset="0.715" style="stop-color:#393939"/>
			<stop  offset="0.9034" style="stop-color:#101010"/>
			<stop  offset="1" style="stop-color:#000000"/>
		</linearGradient>
		<polygon class="st7" points="363.7,358.6 258.9,294 360.9,221.4 		"/>
		<ellipse transform="matrix(0.8585 -0.5128 0.5128 0.8585 -92.5266 243.9027)" cx="395.7" cy="289.6" rx="75.8" ry="75.8"/>
		<g>
			<path class="st9" d="M126,388h12.4c8.7,0,15.2,3,15.2,12.1c0,8.8-6.5,12.8-15,12.8H133v14.5h-7V388z M138.1,407.3
				c5.9,0,8.7-2.3,8.7-7.2c0-4.9-3.1-6.5-8.9-6.5H133v13.7H138.1z"/>
			<path class="st9" d="M157.2,412.6c0-9.8,6.7-15.5,14.1-15.5s14.1,5.7,14.1,15.5c0,9.8-6.7,15.5-14.1,15.5
				S157.2,422.4,157.2,412.6z M178.2,412.6c0-5.9-2.6-9.9-6.9-9.9c-4.3,0-6.9,3.9-6.9,9.9c0,5.9,2.6,9.8,6.9,9.8
				C175.6,422.4,178.2,418.5,178.2,412.6z"/>
			<path class="st9" d="M191.8,419.7v-34.9h6.9v35.2c0,1.7,0.8,2.3,1.5,2.3c0.3,0,0.6,0,1.1-0.1l0.9,5.2c-0.8,0.3-2,0.6-3.7,0.6
				C193.6,428,191.8,424.9,191.8,419.7z"/>
			<path class="st9" d="M206.2,438.8l1.3-5.4c0.6,0.2,1.4,0.4,2.1,0.4c3.1,0,4.9-2.1,5.9-5.1l0.6-1.9l-11.6-29.2h7l5.1,14.5
				c0.9,2.6,1.7,5.5,2.6,8.3h0.2c0.7-2.7,1.5-5.7,2.3-8.3l4.4-14.5h6.7l-10.7,30.9c-2.5,6.7-5.6,10.8-12,10.8
				C208.4,439.4,207.3,439.2,206.2,438.8z"/>
			<path d="M247.9,390.1h-12.6v-2.4h28v2.4h-12.6v37.3h-2.8V390.1z"/>
			<path d="M267.6,398.4h2.2l0.3,5.4h0.1c2-3.5,4.8-6.1,8.2-6.1c1.1,0,1.9,0.1,2.9,0.6l-0.6,2.4c-1-0.3-1.5-0.5-2.6-0.5
				c-2.6,0-5.7,2-7.9,7.4v19.6h-2.7V398.4z"/>
			<path d="M283.3,420.1c0-6.4,5.8-9.5,18.6-10.9c0.1-4.4-1.1-9.2-6.8-9.2c-3.9,0-7.3,1.9-9.2,3.4l-1.2-2c2-1.4,6.1-3.8,10.7-3.8
				c6.8,0,9.2,5,9.2,11.2v18.5h-2.2l-0.3-3.8H302c-2.9,2.4-6.5,4.5-10.2,4.5C287.1,428,283.3,425.5,283.3,420.1z M302,421.1v-9.8
				c-11.9,1.4-15.9,4.1-15.9,8.7c0,4.1,2.8,5.7,6.1,5.7C295.5,425.7,298.4,424.1,302,421.1z"/>
			<path d="M312.5,412.9c0-9.7,6.2-15.2,13.2-15.2c3.9,0,6.5,1.7,8.5,3.6l-1.6,1.9c-1.9-1.7-4-3.1-6.8-3.1
				c-5.9,0-10.5,5.3-10.5,12.9c0,7.6,4.2,12.8,10.4,12.8c3.1,0,5.8-1.5,7.7-3.3l1.4,1.9c-2.5,2.2-5.6,3.8-9.2,3.8
				C318.1,428,312.5,422.5,312.5,412.9z"/>
			<path d="M341.9,384h2.6v31.9h0.1l14.3-17.5h3.1l-9.4,11.4l11,17.5h-3l-9.6-15.5l-6.5,7.6v7.9h-2.6V384z"/>
			<path d="M366.7,412.9c0-9.4,6.1-15.2,12.6-15.2c6.8,0,11.1,4.9,11.1,13.4c0,0.7,0,1.4-0.2,2.2h-20.8c0.1,7.3,4.4,12.5,10.9,12.5
				c3.1,0,5.6-1,7.8-2.6l1.1,2c-2.3,1.4-4.9,2.8-9.1,2.8C372.7,428,366.7,422.4,366.7,412.9z M387.9,411c0-7.4-3.3-11-8.5-11
				c-4.9,0-9.3,4.1-9.9,11H387.9z"/>
			<path d="M398.2,398.4h2.2l0.3,5.4h0.1c2-3.5,4.8-6.1,8.2-6.1c1.1,0,1.9,0.1,2.9,0.6l-0.6,2.4c-1-0.3-1.5-0.5-2.6-0.5
				c-2.6,0-5.7,2-7.9,7.4v19.6h-2.7V398.4z"/>
		</g>
	</g>
</g>
<g id="Layer_6">
</g>
<g id="Layer_5">
</g>
</svg>
